<svg width="24" height="13" viewBox="0 0 24 13" fill="none" xmlns="http://www.w3.org/2000/svg">
<g id="formkit:arrowleft">
<path id="Vector" d="M18.75 7.22222H5.25C4.83 7.22222 4.5 6.90444 4.5 6.49999C4.5 6.09555 4.83 5.77777 5.25 5.77777H18.75C19.17 5.77777 19.5 6.09555 19.5 6.49999C19.5 6.90444 19.17 7.22222 18.75 7.22222Z" fill="#202020"/>
<path id="Vector_2" d="M9 12.2778C8.90164 12.2789 8.80411 12.2603 8.71369 12.2229C8.62328 12.1856 8.54197 12.1305 8.475 12.0611L3.225 7.00556C2.925 6.71667 2.925 6.2689 3.225 5.98001L8.475 0.938896C8.775 0.650007 9.24 0.650007 9.54 0.938896C9.84 1.22778 9.84 1.67556 9.54 1.96445L4.815 6.51445L9.54 11.0645C9.84 11.3533 9.84 11.8011 9.54 12.09C9.39 12.2345 9.195 12.3067 9.015 12.3067L9 12.2778Z" fill="#202020"/>
</g>
</svg>
