<svg width="34" height="39" viewBox="0 0 34 39" fill="none" xmlns="http://www.w3.org/2000/svg">
<g clip-path="url(#clip0_153_25)">
<g clip-path="url(#clip1_153_25)">
<path d="M17 0.75C17.3186 0.750353 17.625 0.872349 17.8567 1.09106C18.0884 1.30977 18.2278 1.60869 18.2465 1.92674C18.2651 2.2448 18.1617 2.55797 17.9572 2.80229C17.7527 3.04661 17.4626 3.20362 17.1462 3.24125L17 3.25H10.75C10.4438 3.25004 10.1483 3.36244 9.91954 3.56589C9.69074 3.76934 9.54457 4.04969 9.50875 4.35375L9.5 4.5V19.5C9.50004 19.8062 9.61244 20.1017 9.81589 20.3305C10.0193 20.5593 10.2997 20.7054 10.6037 20.7413L10.75 20.75H16.375C16.6936 20.7504 17 20.8723 17.2317 21.0911C17.4634 21.3098 17.6028 21.6087 17.6215 21.9267C17.6401 22.2448 17.5367 22.558 17.3322 22.8023C17.1277 23.0466 16.8376 23.2036 16.5212 23.2413L16.375 23.25H10.75C9.79349 23.2501 8.87311 22.8846 8.17717 22.2284C7.48124 21.5722 7.06237 20.6749 7.00625 19.72L7 19.5V4.5C6.99995 3.54349 7.36541 2.62311 8.0216 1.92717C8.6778 1.23124 9.57513 0.812366 10.53 0.75625L10.75 0.75H17ZM24.1338 7.58L27.6687 11.1163C27.9031 11.3507 28.0347 11.6685 28.0347 12C28.0347 12.3315 27.9031 12.6493 27.6687 12.8837L24.1338 16.42C23.8992 16.6544 23.5811 16.786 23.2496 16.7859C22.918 16.7858 22.6 16.6539 22.3656 16.4194C22.1312 16.1848 21.9996 15.8668 21.9997 15.5352C21.9999 15.2036 22.1317 14.8856 22.3662 14.6513L23.7675 13.25H17C16.6685 13.25 16.3505 13.1183 16.1161 12.8839C15.8817 12.6495 15.75 12.3315 15.75 12C15.75 11.6685 15.8817 11.3505 16.1161 11.1161C16.3505 10.8817 16.6685 10.75 17 10.75H23.7675L22.3662 9.34875C22.1317 9.11436 21.9999 8.79641 21.9997 8.46482C21.9996 8.13323 22.1312 7.81518 22.3656 7.58063C22.6 7.34607 22.918 7.21424 23.2496 7.21412C23.5811 7.214 23.8992 7.34561 24.1338 7.58Z" fill="#707070"/>
</g>
<path d="M1.68 34.26H4.12V35H0.77V28.03H1.68V34.26ZM7.47641 35.09C6.96307 35.09 6.49641 34.9733 6.07641 34.74C5.66307 34.5067 5.33641 34.1767 5.09641 33.75C4.86307 33.3167 4.74641 32.8167 4.74641 32.25C4.74641 31.69 4.86641 31.1967 5.10641 30.77C5.35307 30.3367 5.68641 30.0067 6.10641 29.78C6.52641 29.5467 6.99641 29.43 7.51641 29.43C8.03641 29.43 8.50641 29.5467 8.92641 29.78C9.34641 30.0067 9.67641 30.3333 9.91641 30.76C10.1631 31.1867 10.2864 31.6833 10.2864 32.25C10.2864 32.8167 10.1597 33.3167 9.90641 33.75C9.65974 34.1767 9.32307 34.5067 8.89641 34.74C8.46974 34.9733 7.99641 35.09 7.47641 35.09ZM7.47641 34.29C7.80307 34.29 8.10974 34.2133 8.39641 34.06C8.68307 33.9067 8.91307 33.6767 9.08641 33.37C9.26641 33.0633 9.35641 32.69 9.35641 32.25C9.35641 31.81 9.26974 31.4367 9.09641 31.13C8.92307 30.8233 8.69641 30.5967 8.41641 30.45C8.13641 30.2967 7.83307 30.22 7.50641 30.22C7.17307 30.22 6.86641 30.2967 6.58641 30.45C6.31307 30.5967 6.09307 30.8233 5.92641 31.13C5.75974 31.4367 5.67641 31.81 5.67641 32.25C5.67641 32.6967 5.75641 33.0733 5.91641 33.38C6.08307 33.6867 6.30307 33.9167 6.57641 34.07C6.84974 34.2167 7.14974 34.29 7.47641 34.29ZM13.7429 29.43C14.2162 29.43 14.6296 29.5333 14.9829 29.74C15.3429 29.9467 15.6096 30.2067 15.7829 30.52V29.52H16.7029V35.12C16.7029 35.62 16.5962 36.0633 16.3829 36.45C16.1696 36.8433 15.8629 37.15 15.4629 37.37C15.0696 37.59 14.6096 37.7 14.0829 37.7C13.3629 37.7 12.7629 37.53 12.2829 37.19C11.8029 36.85 11.5196 36.3867 11.4329 35.8H12.3329C12.4329 36.1333 12.6396 36.4 12.9529 36.6C13.2662 36.8067 13.6429 36.91 14.0829 36.91C14.5829 36.91 14.9896 36.7533 15.3029 36.44C15.6229 36.1267 15.7829 35.6867 15.7829 35.12V33.97C15.6029 34.29 15.3362 34.5567 14.9829 34.77C14.6296 34.9833 14.2162 35.09 13.7429 35.09C13.2562 35.09 12.8129 34.97 12.4129 34.73C12.0196 34.49 11.7096 34.1533 11.4829 33.72C11.2562 33.2867 11.1429 32.7933 11.1429 32.24C11.1429 31.68 11.2562 31.19 11.4829 30.77C11.7096 30.3433 12.0196 30.0133 12.4129 29.78C12.8129 29.5467 13.2562 29.43 13.7429 29.43ZM15.7829 32.25C15.7829 31.8367 15.6996 31.4767 15.5329 31.17C15.3662 30.8633 15.1396 30.63 14.8529 30.47C14.5729 30.3033 14.2629 30.22 13.9229 30.22C13.5829 30.22 13.2729 30.3 12.9929 30.46C12.7129 30.62 12.4896 30.8533 12.3229 31.16C12.1562 31.4667 12.0729 31.8267 12.0729 32.24C12.0729 32.66 12.1562 33.0267 12.3229 33.34C12.4896 33.6467 12.7129 33.8833 12.9929 34.05C13.2729 34.21 13.5829 34.29 13.9229 34.29C14.2629 34.29 14.5729 34.21 14.8529 34.05C15.1396 33.8833 15.3662 33.6467 15.5329 33.34C15.6996 33.0267 15.7829 32.6633 15.7829 32.25ZM20.6307 35.09C20.1174 35.09 19.6507 34.9733 19.2307 34.74C18.8174 34.5067 18.4907 34.1767 18.2507 33.75C18.0174 33.3167 17.9007 32.8167 17.9007 32.25C17.9007 31.69 18.0207 31.1967 18.2607 30.77C18.5074 30.3367 18.8407 30.0067 19.2607 29.78C19.6807 29.5467 20.1507 29.43 20.6707 29.43C21.1907 29.43 21.6607 29.5467 22.0807 29.78C22.5007 30.0067 22.8307 30.3333 23.0707 30.76C23.3174 31.1867 23.4407 31.6833 23.4407 32.25C23.4407 32.8167 23.314 33.3167 23.0607 33.75C22.814 34.1767 22.4774 34.5067 22.0507 34.74C21.624 34.9733 21.1507 35.09 20.6307 35.09ZM20.6307 34.29C20.9574 34.29 21.264 34.2133 21.5507 34.06C21.8374 33.9067 22.0674 33.6767 22.2407 33.37C22.4207 33.0633 22.5107 32.69 22.5107 32.25C22.5107 31.81 22.424 31.4367 22.2507 31.13C22.0774 30.8233 21.8507 30.5967 21.5707 30.45C21.2907 30.2967 20.9874 30.22 20.6607 30.22C20.3274 30.22 20.0207 30.2967 19.7407 30.45C19.4674 30.5967 19.2474 30.8233 19.0807 31.13C18.914 31.4367 18.8307 31.81 18.8307 32.25C18.8307 32.6967 18.9107 33.0733 19.0707 33.38C19.2374 33.6867 19.4574 33.9167 19.7307 34.07C20.004 34.2167 20.304 34.29 20.6307 34.29ZM29.4972 29.52V35H28.5872V34.19C28.4139 34.47 28.1705 34.69 27.8572 34.85C27.5505 35.0033 27.2105 35.08 26.8372 35.08C26.4105 35.08 26.0272 34.9933 25.6872 34.82C25.3472 34.64 25.0772 34.3733 24.8772 34.02C24.6839 33.6667 24.5872 33.2367 24.5872 32.73V29.52H25.4872V32.61C25.4872 33.15 25.6239 33.5667 25.8972 33.86C26.1705 34.1467 26.5439 34.29 27.0172 34.29C27.5039 34.29 27.8872 34.14 28.1672 33.84C28.4472 33.54 28.5872 33.1033 28.5872 32.53V29.52H29.4972ZM32.1437 30.27V33.5C32.1437 33.7667 32.2003 33.9567 32.3137 34.07C32.427 34.1767 32.6237 34.23 32.9037 34.23H33.5737V35H32.7537C32.247 35 31.867 34.8833 31.6137 34.65C31.3603 34.4167 31.2337 34.0333 31.2337 33.5V30.27H30.5237V29.52H31.2337V28.14H32.1437V29.52H33.5737V30.27H32.1437Z" fill="#707070"/>
</g>
<defs>
<clipPath id="clip0_153_25">
<rect width="34" height="39" fill="white"/>
</clipPath>
<clipPath id="clip1_153_25">
<rect width="30" height="30" fill="white" transform="translate(2 -3)"/>
</clipPath>
</defs>
</svg>
