<svg width="11" height="13" viewBox="0 0 11 13" fill="none" xmlns="http://www.w3.org/2000/svg">
<path d="M7.24457 2.4186C7.98883 2.4186 8.61018 1.86233 8.61018 1.2093C8.61018 0.888575 8.4663 0.580985 8.2102 0.354196C7.9541 0.127408 7.60675 0 7.24457 0C6.48665 0 5.87896 0.532093 5.87896 1.2093C5.87896 1.86233 6.48665 2.4186 7.24457 2.4186ZM4.77964 10.8112L5.46245 8.16279L6.90316 9.37209V13H8.26878V8.46512L6.82806 7.25581L7.24457 5.44186C7.71214 5.9169 8.2893 6.29763 8.93713 6.55839C9.58495 6.81915 10.2884 6.95388 11 6.95349V5.74419C9.69584 5.74419 8.61018 5.13953 8.05711 4.28093L7.3743 3.32558C7.10118 2.9507 6.6915 2.72093 6.22036 2.72093C6.00869 2.72093 5.87896 2.7693 5.66729 2.7693L2.12353 4.09953V6.95349H3.48914V4.88558L4.71136 4.46233L3.61887 9.37209L0.273122 8.76744L0 9.97674L4.77964 10.8112Z" fill="#747474"/>
</svg>
