<svg width="54" height="39" viewBox="0 0 54 39" fill="none" xmlns="http://www.w3.org/2000/svg">
<g clip-path="url(#clip0_150_14)">
<path d="M25.0965 0L18 13.6875H22.182L25.095 8.2455L27.99 13.6875H32.139L25.0965 0ZM32.139 13.6875L30.0795 17.8215L27.99 13.6875H24.8205L30.0795 24L35.3055 13.6875H32.139Z" fill="#707070"/>
<path d="M1.68 34.26H4.12V35H0.77V28.03H1.68V34.26ZM5.55641 28.63C5.38307 28.63 5.23641 28.57 5.11641 28.45C4.99641 28.33 4.93641 28.1833 4.93641 28.01C4.93641 27.8367 4.99641 27.69 5.11641 27.57C5.23641 27.45 5.38307 27.39 5.55641 27.39C5.72307 27.39 5.86307 27.45 5.97641 27.57C6.09641 27.69 6.15641 27.8367 6.15641 28.01C6.15641 28.1833 6.09641 28.33 5.97641 28.45C5.86307 28.57 5.72307 28.63 5.55641 28.63ZM5.99641 29.52V35H5.08641V29.52H5.99641ZM10.2173 29.42C10.884 29.42 11.424 29.6233 11.8373 30.03C12.2507 30.43 12.4573 31.01 12.4573 31.77V35H11.5573V31.9C11.5573 31.3533 11.4207 30.9367 11.1473 30.65C10.874 30.3567 10.5007 30.21 10.0273 30.21C9.54734 30.21 9.16401 30.36 8.87734 30.66C8.59734 30.96 8.45734 31.3967 8.45734 31.97V35H7.54734V29.52H8.45734V30.3C8.63734 30.02 8.88068 29.8033 9.18734 29.65C9.50068 29.4967 9.84401 29.42 10.2173 29.42ZM17.0038 35L14.8538 32.58V35H13.9438V27.6H14.8538V31.95L16.9638 29.52H18.2338L15.6538 32.25L18.2438 35H17.0038ZM23.9663 35.07C23.5063 35.07 23.093 34.99 22.7263 34.83C22.3663 34.6633 22.083 34.4367 21.8763 34.15C21.6697 33.8567 21.563 33.52 21.5563 33.14H22.5263C22.5597 33.4667 22.693 33.7433 22.9263 33.97C23.1663 34.19 23.513 34.3 23.9663 34.3C24.3997 34.3 24.7397 34.1933 24.9863 33.98C25.2397 33.76 25.3663 33.48 25.3663 33.14C25.3663 32.8733 25.293 32.6567 25.1463 32.49C24.9997 32.3233 24.8163 32.1967 24.5963 32.11C24.3763 32.0233 24.0797 31.93 23.7063 31.83C23.2463 31.71 22.8763 31.59 22.5963 31.47C22.323 31.35 22.0863 31.1633 21.8863 30.91C21.693 30.65 21.5963 30.3033 21.5963 29.87C21.5963 29.49 21.693 29.1533 21.8863 28.86C22.0797 28.5667 22.3497 28.34 22.6963 28.18C23.0497 28.02 23.453 27.94 23.9063 27.94C24.5597 27.94 25.093 28.1033 25.5063 28.43C25.9263 28.7567 26.163 29.19 26.2163 29.73H25.2163C25.183 29.4633 25.043 29.23 24.7963 29.03C24.5497 28.8233 24.223 28.72 23.8163 28.72C23.4363 28.72 23.1263 28.82 22.8863 29.02C22.6463 29.2133 22.5263 29.4867 22.5263 29.84C22.5263 30.0933 22.5963 30.3 22.7363 30.46C22.883 30.62 23.0597 30.7433 23.2663 30.83C23.4797 30.91 23.7763 31.0033 24.1563 31.11C24.6163 31.2367 24.9863 31.3633 25.2663 31.49C25.5463 31.61 25.7863 31.8 25.9863 32.06C26.1863 32.3133 26.2863 32.66 26.2863 33.1C26.2863 33.44 26.1963 33.76 26.0163 34.06C25.8363 34.36 25.5697 34.6033 25.2163 34.79C24.863 34.9767 24.4463 35.07 23.9663 35.07ZM28.7355 30.27V33.5C28.7355 33.7667 28.7921 33.9567 28.9055 34.07C29.0188 34.1767 29.2155 34.23 29.4955 34.23H30.1655V35H29.3455C28.8388 35 28.4588 34.8833 28.2055 34.65C27.9521 34.4167 27.8255 34.0333 27.8255 33.5V30.27H27.1155V29.52H27.8255V28.14H28.7355V29.52H30.1655V30.27H28.7355ZM32.178 30.41C32.338 30.0967 32.5647 29.8533 32.858 29.68C33.158 29.5067 33.5214 29.42 33.948 29.42V30.36H33.708C32.688 30.36 32.178 30.9133 32.178 32.02V35H31.268V29.52H32.178V30.41ZM34.6585 32.24C34.6585 31.68 34.7718 31.19 34.9985 30.77C35.2252 30.3433 35.5352 30.0133 35.9285 29.78C36.3285 29.5467 36.7718 29.43 37.2585 29.43C37.7385 29.43 38.1552 29.5333 38.5085 29.74C38.8618 29.9467 39.1252 30.2067 39.2985 30.52V29.52H40.2185V35H39.2985V33.98C39.1185 34.3 38.8485 34.5667 38.4885 34.78C38.1352 34.9867 37.7218 35.09 37.2485 35.09C36.7618 35.09 36.3218 34.97 35.9285 34.73C35.5352 34.49 35.2252 34.1533 34.9985 33.72C34.7718 33.2867 34.6585 32.7933 34.6585 32.24ZM39.2985 32.25C39.2985 31.8367 39.2152 31.4767 39.0485 31.17C38.8818 30.8633 38.6552 30.63 38.3685 30.47C38.0885 30.3033 37.7785 30.22 37.4385 30.22C37.0985 30.22 36.7885 30.3 36.5085 30.46C36.2285 30.62 36.0052 30.8533 35.8385 31.16C35.6718 31.4667 35.5885 31.8267 35.5885 32.24C35.5885 32.66 35.6718 33.0267 35.8385 33.34C36.0052 33.6467 36.2285 33.8833 36.5085 34.05C36.7885 34.21 37.0985 34.29 37.4385 34.29C37.7785 34.29 38.0885 34.21 38.3685 34.05C38.6552 33.8833 38.8818 33.6467 39.0485 33.34C39.2152 33.0267 39.2985 32.6633 39.2985 32.25ZM43.7963 34.16L45.4963 29.52H46.4663L44.3163 35H43.2563L41.1063 29.52H42.0863L43.7963 34.16ZM47.0218 32.24C47.0218 31.68 47.1351 31.19 47.3618 30.77C47.5885 30.3433 47.8985 30.0133 48.2918 29.78C48.6918 29.5467 49.1351 29.43 49.6218 29.43C50.1018 29.43 50.5185 29.5333 50.8718 29.74C51.2251 29.9467 51.4885 30.2067 51.6618 30.52V29.52H52.5818V35H51.6618V33.98C51.4818 34.3 51.2118 34.5667 50.8518 34.78C50.4985 34.9867 50.0851 35.09 49.6118 35.09C49.1251 35.09 48.6851 34.97 48.2918 34.73C47.8985 34.49 47.5885 34.1533 47.3618 33.72C47.1351 33.2867 47.0218 32.7933 47.0218 32.24ZM51.6618 32.25C51.6618 31.8367 51.5785 31.4767 51.4118 31.17C51.2451 30.8633 51.0185 30.63 50.7318 30.47C50.4518 30.3033 50.1418 30.22 49.8018 30.22C49.4618 30.22 49.1518 30.3 48.8718 30.46C48.5918 30.62 48.3685 30.8533 48.2018 31.16C48.0351 31.4667 47.9518 31.8267 47.9518 32.24C47.9518 32.66 48.0351 33.0267 48.2018 33.34C48.3685 33.6467 48.5918 33.8833 48.8718 34.05C49.1518 34.21 49.4618 34.29 49.8018 34.29C50.1418 34.29 50.4518 34.21 50.7318 34.05C51.0185 33.8833 51.2451 33.6467 51.4118 33.34C51.5785 33.0267 51.6618 32.6633 51.6618 32.25Z" fill="#707070"/>
</g>
<defs>
<clipPath id="clip0_150_14">
<rect width="54" height="39" fill="white"/>
</clipPath>
</defs>
</svg>
