<svg width="67" height="39" viewBox="0 0 67 39" fill="none" xmlns="http://www.w3.org/2000/svg">
<g clip-path="url(#clip0_150_20)">
<path d="M31.0965 0L24 13.6875H28.182L31.095 8.2455L33.99 13.6875H38.139L31.0965 0ZM38.139 13.6875L36.0795 17.8215L33.99 13.6875H30.8205L36.0795 24L41.3055 13.6875H38.139Z" fill="#FC4C02"/>
<path d="M1.66 28.03V32.44C1.66 33.06 1.81 33.52 2.11 33.82C2.41667 34.12 2.84 34.27 3.38 34.27C3.91333 34.27 4.33 34.12 4.63 33.82C4.93667 33.52 5.09 33.06 5.09 32.44V28.03H6V32.43C6 33.01 5.88333 33.5 5.65 33.9C5.41667 34.2933 5.1 34.5867 4.7 34.78C4.30667 34.9733 3.86333 35.07 3.37 35.07C2.87667 35.07 2.43 34.9733 2.03 34.78C1.63667 34.5867 1.32333 34.2933 1.09 33.9C0.863333 33.5 0.75 33.01 0.75 32.43V28.03H1.66ZM10.188 29.42C10.8547 29.42 11.3947 29.6233 11.808 30.03C12.2214 30.43 12.428 31.01 12.428 31.77V35H11.528V31.9C11.528 31.3533 11.3914 30.9367 11.118 30.65C10.8447 30.3567 10.4714 30.21 9.99805 30.21C9.51805 30.21 9.13471 30.36 8.84805 30.66C8.56805 30.96 8.42805 31.3967 8.42805 31.97V35H7.51805V29.52H8.42805V30.3C8.60805 30.02 8.85138 29.8033 9.15805 29.65C9.47138 29.4967 9.81471 29.42 10.188 29.42ZM14.8245 34.26H17.2645V35H13.9145V28.03H14.8245V34.26ZM18.7009 28.63C18.5276 28.63 18.3809 28.57 18.2609 28.45C18.1409 28.33 18.0809 28.1833 18.0809 28.01C18.0809 27.8367 18.1409 27.69 18.2609 27.57C18.3809 27.45 18.5276 27.39 18.7009 27.39C18.8676 27.39 19.0076 27.45 19.1209 27.57C19.2409 27.69 19.3009 27.8367 19.3009 28.01C19.3009 28.1833 19.2409 28.33 19.1209 28.45C19.0076 28.57 18.8676 28.63 18.7009 28.63ZM19.1409 29.52V35H18.2309V29.52H19.1409ZM23.3619 29.42C24.0285 29.42 24.5685 29.6233 24.9819 30.03C25.3952 30.43 25.6019 31.01 25.6019 31.77V35H24.7019V31.9C24.7019 31.3533 24.5652 30.9367 24.2919 30.65C24.0185 30.3567 23.6452 30.21 23.1719 30.21C22.6919 30.21 22.3085 30.36 22.0219 30.66C21.7419 30.96 21.6019 31.3967 21.6019 31.97V35H20.6919V29.52H21.6019V30.3C21.7819 30.02 22.0252 29.8033 22.3319 29.65C22.6452 29.4967 22.9885 29.42 23.3619 29.42ZM30.1484 35L27.9984 32.58V35H27.0884V27.6H27.9984V31.95L30.1084 29.52H31.3784L28.7984 32.25L31.3884 35H30.1484ZM37.1109 35.07C36.6509 35.07 36.2375 34.99 35.8709 34.83C35.5109 34.6633 35.2275 34.4367 35.0209 34.15C34.8142 33.8567 34.7075 33.52 34.7009 33.14H35.6709C35.7042 33.4667 35.8375 33.7433 36.0709 33.97C36.3109 34.19 36.6575 34.3 37.1109 34.3C37.5442 34.3 37.8842 34.1933 38.1309 33.98C38.3842 33.76 38.5109 33.48 38.5109 33.14C38.5109 32.8733 38.4375 32.6567 38.2909 32.49C38.1442 32.3233 37.9609 32.1967 37.7409 32.11C37.5209 32.0233 37.2242 31.93 36.8509 31.83C36.3909 31.71 36.0209 31.59 35.7409 31.47C35.4675 31.35 35.2309 31.1633 35.0309 30.91C34.8375 30.65 34.7409 30.3033 34.7409 29.87C34.7409 29.49 34.8375 29.1533 35.0309 28.86C35.2242 28.5667 35.4942 28.34 35.8409 28.18C36.1942 28.02 36.5975 27.94 37.0509 27.94C37.7042 27.94 38.2375 28.1033 38.6509 28.43C39.0709 28.7567 39.3075 29.19 39.3609 29.73H38.3609C38.3275 29.4633 38.1875 29.23 37.9409 29.03C37.6942 28.8233 37.3675 28.72 36.9609 28.72C36.5809 28.72 36.2709 28.82 36.0309 29.02C35.7909 29.2133 35.6709 29.4867 35.6709 29.84C35.6709 30.0933 35.7409 30.3 35.8809 30.46C36.0275 30.62 36.2042 30.7433 36.4109 30.83C36.6242 30.91 36.9209 31.0033 37.3009 31.11C37.7609 31.2367 38.1309 31.3633 38.4109 31.49C38.6909 31.61 38.9309 31.8 39.1309 32.06C39.3309 32.3133 39.4309 32.66 39.4309 33.1C39.4309 33.44 39.3409 33.76 39.1609 34.06C38.9809 34.36 38.7142 34.6033 38.3609 34.79C38.0075 34.9767 37.5909 35.07 37.1109 35.07ZM41.88 30.27V33.5C41.88 33.7667 41.9367 33.9567 42.05 34.07C42.1633 34.1767 42.36 34.23 42.64 34.23H43.31V35H42.49C41.9833 35 41.6033 34.8833 41.35 34.65C41.0967 34.4167 40.97 34.0333 40.97 33.5V30.27H40.26V29.52H40.97V28.14H41.88V29.52H43.31V30.27H41.88ZM45.3226 30.41C45.4826 30.0967 45.7092 29.8533 46.0026 29.68C46.3026 29.5067 46.6659 29.42 47.0926 29.42V30.36H46.8526C45.8326 30.36 45.3226 30.9133 45.3226 32.02V35H44.4126V29.52H45.3226V30.41ZM47.803 32.24C47.803 31.68 47.9164 31.19 48.143 30.77C48.3697 30.3433 48.6797 30.0133 49.073 29.78C49.473 29.5467 49.9164 29.43 50.403 29.43C50.883 29.43 51.2997 29.5333 51.653 29.74C52.0064 29.9467 52.2697 30.2067 52.443 30.52V29.52H53.363V35H52.443V33.98C52.263 34.3 51.993 34.5667 51.633 34.78C51.2797 34.9867 50.8664 35.09 50.393 35.09C49.9064 35.09 49.4664 34.97 49.073 34.73C48.6797 34.49 48.3697 34.1533 48.143 33.72C47.9164 33.2867 47.803 32.7933 47.803 32.24ZM52.443 32.25C52.443 31.8367 52.3597 31.4767 52.193 31.17C52.0264 30.8633 51.7997 30.63 51.513 30.47C51.233 30.3033 50.923 30.22 50.583 30.22C50.243 30.22 49.933 30.3 49.653 30.46C49.373 30.62 49.1497 30.8533 48.983 31.16C48.8164 31.4667 48.733 31.8267 48.733 32.24C48.733 32.66 48.8164 33.0267 48.983 33.34C49.1497 33.6467 49.373 33.8833 49.653 34.05C49.933 34.21 50.243 34.29 50.583 34.29C50.923 34.29 51.233 34.21 51.513 34.05C51.7997 33.8833 52.0264 33.6467 52.193 33.34C52.3597 33.0267 52.443 32.6633 52.443 32.25ZM56.9409 34.16L58.6409 29.52H59.6109L57.4609 35H56.4009L54.2509 29.52H55.2309L56.9409 34.16ZM60.1663 32.24C60.1663 31.68 60.2797 31.19 60.5063 30.77C60.733 30.3433 61.043 30.0133 61.4363 29.78C61.8363 29.5467 62.2797 29.43 62.7663 29.43C63.2463 29.43 63.663 29.5333 64.0163 29.74C64.3697 29.9467 64.633 30.2067 64.8063 30.52V29.52H65.7263V35H64.8063V33.98C64.6263 34.3 64.3563 34.5667 63.9963 34.78C63.643 34.9867 63.2297 35.09 62.7563 35.09C62.2697 35.09 61.8297 34.97 61.4363 34.73C61.043 34.49 60.733 34.1533 60.5063 33.72C60.2797 33.2867 60.1663 32.7933 60.1663 32.24ZM64.8063 32.25C64.8063 31.8367 64.723 31.4767 64.5563 31.17C64.3897 30.8633 64.163 30.63 63.8763 30.47C63.5963 30.3033 63.2863 30.22 62.9463 30.22C62.6063 30.22 62.2963 30.3 62.0163 30.46C61.7363 30.62 61.513 30.8533 61.3463 31.16C61.1797 31.4667 61.0963 31.8267 61.0963 32.24C61.0963 32.66 61.1797 33.0267 61.3463 33.34C61.513 33.6467 61.7363 33.8833 62.0163 34.05C62.2963 34.21 62.6063 34.29 62.9463 34.29C63.2863 34.29 63.5963 34.21 63.8763 34.05C64.163 33.8833 64.3897 33.6467 64.5563 33.34C64.723 33.0267 64.8063 32.6633 64.8063 32.25Z" fill="#FC4C02"/>
</g>
<defs>
<clipPath id="clip0_150_20">
<rect width="67" height="39" fill="white"/>
</clipPath>
</defs>
</svg>
