<svg width="11" height="11" viewBox="0 0 11 11" fill="none" xmlns="http://www.w3.org/2000/svg">
<g id="mingcute:time-fill" clip-path="url(#clip0_43_305)">
<g id="Group">
<path id="Vector" d="M5.49996 0.916672C8.03133 0.916672 10.0833 2.96863 10.0833 5.50001C10.0833 8.03138 8.03133 10.0833 5.49996 10.0833C2.96858 10.0833 0.916626 8.03138 0.916626 5.50001C0.916626 2.96863 2.96858 0.916672 5.49996 0.916672ZM5.49996 2.75001C5.3784 2.75001 5.26182 2.79829 5.17587 2.88425C5.08991 2.9702 5.04163 3.08678 5.04163 3.20834V5.50001C5.04165 5.62155 5.08996 5.73811 5.17592 5.82405L6.55092 7.19905C6.63736 7.28254 6.75314 7.32873 6.87331 7.32769C6.99348 7.32664 7.10844 7.27844 7.19342 7.19346C7.2784 7.10848 7.3266 6.99353 7.32764 6.87336C7.32869 6.75318 7.28249 6.63741 7.199 6.55096L5.95829 5.31026V3.20834C5.95829 3.08678 5.91 2.9702 5.82405 2.88425C5.7381 2.79829 5.62152 2.75001 5.49996 2.75001Z" fill="#747474"/>
</g>
</g>
<defs>
<clipPath id="clip0_43_305">
<rect width="11" height="11" fill="white"/>
</clipPath>
</defs>
</svg>
